Torque
version=1
nRows=35
nColumns=28
inDegrees=yes
endheader
time	lumbar_ext	lumbar_bend	lumbar_rot	shoulder_flex_r	shoulder_add_r	shoulder_rot_r	elbow_flex_r	pro_sup_r	wrist_flex_r	wrist_dev_r	shoulder_flex_l	shoulder_add_l	shoulder_rot_l	elbow_flex_l	pro_sup_l	wrist_flex_l	wrist_dev_l	hip_flexion_r	hip_adduction_r	hip_rotation_r	knee_angle_r	ankle_angle_r	hip_flexion_l	hip_adduction_l	hip_rotation_l	knee_angle_l	ankle_angle_l
7.630000	24.941721	-2.420792	1.217052	1.501148	1.194901	0.441274	1.740229	10.836432	-3.154643	-0.674149	0.764094	-1.269294	0.076541	0.881672	22.801638	-2.153220	1.631215	5.072700	-27.822703	-100.663054	148.113996	-2.949115	-22.653518	-21.734024	-106.198910	40.710372	-48.579734
7.640000	25.546451	-1.884997	1.174424	1.670176	1.019829	0.369263	1.729523	10.957250	-3.070771	-0.641144	0.471768	-1.490323	0.081784	0.711901	22.269201	-2.042060	1.712698	5.175197	-26.858268	-102.017105	146.721089	-3.179228	-23.281052	-21.187952	-106.704774	40.413666	-49.443733
7.650000	26.205757	-1.614069	1.104948	1.762854	0.665764	0.333909	1.665017	11.139428	-3.007988	-0.607444	0.236684	-1.633092	0.047388	0.623334	21.833759	-1.977284	1.792053	5.240114	-25.868477	-103.163588	145.242673	-3.450885	-24.199287	-20.617639	-106.977671	39.405361	-50.317995
7.660000	26.953168	-1.650104	1.012146	1.679844	0.161025	0.297764	1.536844	11.367392	-2.973693	-0.584842	0.024369	-1.701186	0.053688	0.557422	21.562558	-1.973463	1.859376	5.282835	-24.558816	-103.879935	143.720073	-3.709666	-25.011688	-20.016445	-106.933996	37.722391	-50.861977
7.670000	27.697711	-2.048925	0.955019	1.500521	-0.444010	0.289724	1.421564	11.573015	-2.958979	-0.578118	-0.164457	-1.685817	0.075928	0.582425	21.484148	-2.043772	1.917349	5.241430	-23.157637	-104.121915	142.346245	-3.876593	-25.664472	-19.276409	-106.677657	35.498811	-51.037908
7.680000	28.381634	-2.743068	0.957104	1.269476	-1.030412	0.264053	1.295316	11.702269	-2.951477	-0.587056	-0.308814	-1.592097	0.120107	0.638633	21.558581	-2.188508	1.967770	5.018987	-21.659175	-103.836876	141.239637	-3.932940	-26.067862	-18.455278	-106.239304	32.897606	-50.791688
7.690000	28.951240	-3.617886	1.082146	1.062074	-1.565779	0.210919	1.200040	11.664571	-2.930529	-0.604948	-0.386975	-1.443428	0.209062	0.752138	21.677788	-2.392972	2.018630	4.701270	-20.229434	-103.049022	140.559000	-3.923343	-26.059113	-17.546890	-105.780396	30.265895	-50.092354
7.700000	29.328630	-4.528869	1.345116	0.970281	-1.974538	0.109309	1.127000	11.397596	-2.873246	-0.615234	-0.338932	-1.264944	0.289931	0.904613	21.706650	-2.634235	2.078803	4.259996	-19.008857	-101.838416	140.372658	-3.911100	-25.647243	-16.673927	-105.382589	27.945440	-49.054228
7.710000	29.522843	-5.420451	1.789168	1.005298	-2.269820	-0.007966	1.142181	10.829700	-2.759942	-0.601102	-0.134900	-1.148930	0.417249	1.087121	21.548560	-2.880058	2.160391	3.922140	-18.140244	-100.289556	140.873641	-3.977172	-24.741182	-15.727417	-105.180144	26.252854	-47.742229
7.720000	29.479756	-6.152930	2.299424	1.204083	-2.351972	-0.189160	1.141028	9.993616	-2.580086	-0.548103	0.269628	-1.096342	0.444672	1.283869	21.157051	-3.096147	2.263614	3.483608	-17.402165	-98.662788	142.199779	-4.189955	-23.659971	-15.012346	-105.062208	25.439519	-46.470329
7.730000	29.332199	-6.752517	2.859513	1.432181	-2.340441	-0.322268	1.278175	8.919359	-2.333955	-0.459518	0.789220	-1.239315	0.552965	1.462668	20.564649	-3.247066	2.386281	3.322387	-16.740927	-97.067052	144.706088	-4.550075	-22.314825	-14.263988	-105.086347	25.641429	-45.259632
7.740000	28.923755	-7.140166	3.320226	1.706821	-2.087365	-0.413095	1.426270	7.752262	-2.040981	-0.342869	1.423379	-1.508939	0.519714	1.598093	19.820556	-3.310173	2.509574	3.139692	-16.102750	-95.732832	148.331147	-4.986551	-21.372726	-13.790365	-105.190399	26.864925	-44.516273
7.750000	28.372698	-7.289288	3.586692	1.861472	-1.676919	-0.396085	1.627663	6.672079	-1.748334	-0.230787	2.024784	-1.970250	0.486773	1.616161	19.046541	-3.266140	2.604612	3.267611	-15.289035	-94.622755	152.798116	-5.460827	-20.730917	-13.499165	-105.369794	28.896231	-44.030335
7.760000	27.691994	-7.190776	3.556155	1.955444	-1.056447	-0.212596	1.803969	5.869782	-1.522995	-0.152795	2.499273	-2.578070	0.420277	1.509208	18.324070	-3.119772	2.637031	3.681780	-14.357198	-93.738404	157.300258	-5.887935	-20.646170	-13.426924	-105.699590	31.286003	-43.829069
7.770000	26.843319	-6.853589	3.190110	1.988187	-0.327926	0.027006	1.964464	5.459012	-1.420804	-0.126675	2.835599	-3.187849	0.203742	1.341013	17.750904	-2.887413	2.587520	4.281686	-13.478361	-93.079931	160.973901	-6.280266	-21.231169	-13.555886	-106.237140	33.499809	-43.714345
7.780000	25.962200	-6.263633	2.510466	1.990208	0.304929	0.262652	2.067791	5.478758	-1.482070	-0.161421	2.979298	-3.716460	0.059900	1.137675	17.349096	-2.587725	2.441994	5.307758	-12.625189	-92.590365	163.312662	-6.557038	-22.001454	-13.825928	-107.055071	35.277752	-43.326512
7.790000	24.852221	-5.431766	1.640712	2.040670	0.654779	0.448206	2.244937	5.832364	-1.686791	-0.229930	3.088233	-3.943648	-0.147091	1.080218	17.072016	-2.249716	2.228794	6.624622	-12.372726	-92.331219	164.326358	-6.666197	-23.001898	-14.140950	-108.267993	36.562394	-42.702325
7.800000	23.585565	-4.379206	0.743203	2.027512	0.667140	0.545790	2.402204	6.377605	-1.998426	-0.312337	3.190587	-3.859549	-0.215513	1.128944	16.827803	-1.893148	1.980617	8.416980	-12.717939	-92.211252	164.459413	-6.604265	-23.759913	-14.473947	-109.860778	37.652019	-41.597091
7.810000	22.158616	-3.144427	-0.089345	2.022491	0.421177	0.525507	2.518424	6.958265	-2.352982	-0.387780	3.419688	-3.444268	-0.283328	1.342436	16.504735	-1.550034	1.732772	10.332008	-13.691198	-92.299569	164.311266	-6.464656	-24.365812	-14.988030	-111.752298	38.762006	-40.196113
7.820000	20.898333	-1.941234	-0.759161	1.815281	0.065110	0.498447	2.616505	7.404482	-2.693875	-0.457493	3.655791	-2.923684	-0.185489	1.569274	16.039954	-1.236109	1.517343	12.306094	-15.088309	-92.537570	164.435631	-6.315680	-24.596185	-15.388881	-113.713565	39.940515	-38.446307
7.830000	19.975529	-0.871183	-1.328553	1.647801	-0.191802	0.372121	2.581249	7.636783	-2.978950	-0.527197	4.050933	-2.309845	-0.164152	1.821831	15.457842	-0.971399	1.338288	13.789236	-16.371994	-93.042496	164.997357	-6.355502	-24.798036	-15.766493	-115.486649	40.902811	-36.876693
7.840000	19.706244	-0.156425	-1.793262	1.463945	-0.357972	0.273230	2.504324	7.610354	-3.188983	-0.608326	4.472303	-1.792480	-0.027488	1.998561	14.843278	-0.750469	1.196440	14.679465	-17.088337	-93.797672	165.988863	-6.621787	-24.784271	-15.806126	-116.800734	41.431135	-35.637993
7.850000	20.079792	0.087690	-2.165208	1.497086	-0.389862	0.201751	2.347318	7.375400	-3.333352	-0.703323	4.954907	-1.355902	0.038743	2.089616	14.289811	-0.564993	1.086725	14.629703	-16.921642	-94.782722	166.983300	-7.137932	-24.794831	-15.619278	-117.618361	41.529608	-35.094392
7.860000	21.145408	-0.172956	-2.385898	1.948778	-0.439306	0.167521	2.138698	7.029135	-3.440262	-0.818358	5.501481	-1.080868	0.113647	2.171409	13.909109	-0.398467	0.993702	13.900086	-15.552340	-95.646250	167.566198	-7.987717	-24.570426	-15.304862	-118.164307	41.478887	-35.206959
7.870000	22.530913	-0.924730	-2.496633	2.826391	-0.586673	0.157460	2.019494	6.700692	-3.527759	-0.941689	6.023481	-1.054601	0.079719	2.178269	13.789378	-0.234294	0.918807	12.257008	-13.440237	-96.206269	167.211449	-8.853082	-24.466526	-14.979641	-118.595499	41.762826	-35.937026
7.880000	24.328308	-2.003695	-2.490570	4.155831	-0.994447	0.059073	1.892869	6.498093	-3.616831	-1.076598	6.379406	-1.304348	0.044197	2.205781	14.002059	-0.063348	0.838878	10.431171	-10.367115	-96.015134	165.715635	-9.843942	-23.906932	-14.685736	-119.089973	42.776871	-37.045419
7.890000	26.117344	-3.229499	-2.533171	5.770440	-1.662988	-0.117076	1.927684	6.527288	-3.696213	-1.197015	6.543199	-1.771641	-0.151621	2.135004	14.571710	0.104553	0.762646	8.044315	-6.978871	-95.274031	162.697935	-10.680208	-23.493333	-14.204316	-119.468674	44.497302	-38.801104
7.900000	28.031073	-4.380089	-2.596000	7.264128	-2.452676	-0.406106	1.988459	6.817701	-3.759555	-1.304368	6.407307	-2.339559	-0.309289	2.048732	15.471706	0.271989	0.676710	5.606331	-3.117065	-93.848366	158.332533	-11.504764	-22.740492	-13.255899	-119.503561	46.888335	-40.939569
7.910000	29.901047	-5.271544	-2.768032	8.445877	-3.130928	-0.709379	2.216431	7.382788	-3.787824	-1.391889	6.238222	-2.763060	-0.496856	1.965051	16.646415	0.421022	0.586148	2.889088	0.800731	-92.228356	152.875185	-12.206851	-21.885504	-11.619751	-118.884793	49.668923	-43.425333
7.920000	31.697388	-5.835944	-2.942163	8.968448	-3.388074	-0.900840	2.507117	8.091711	-3.774735	-1.472841	6.125247	-2.861903	-0.456933	1.951016	17.940113	0.555215	0.486642	0.012858	4.752615	-90.447235	146.880341	-12.890842	-21.094277	-9.242393	-117.649215	52.681383	-45.753777
7.930000	33.456993	-6.098683	-3.152377	8.864516	-3.003443	-0.981480	2.847659	8.870186	-3.715757	-1.594112	6.161653	-2.596698	-0.451936	1.979675	19.163808	0.666554	0.373248	-2.885430	8.708217	-89.003572	141.217911	-13.503298	-20.074922	-6.354368	-115.752813	55.986437	-47.356274
7.940000	34.935975	-6.208278	-3.233227	8.250725	-1.869990	-0.871776	3.254123	9.593717	-3.607825	-1.786037	6.293574	-2.231621	-0.393146	2.059961	20.026123	0.783426	0.252984	-5.900876	12.532600	-87.905788	136.760598	-13.937408	-19.111815	-3.644057	-113.745233	59.619623	-47.932312
7.950000	36.241405	-6.205890	-3.273788	7.346460	-0.260052	-0.557487	3.674986	10.172034	-3.453927	-2.064931	6.506240	-1.820060	-0.274756	2.118595	20.532362	0.917117	0.131286	-8.596045	16.039153	-87.302980	134.056985	-14.076302	-17.900072	-1.175954	-111.917183	63.389634	-47.217492
7.960000	37.260659	-6.036007	-3.458070	6.648278	1.388072	-0.116155	4.095451	10.518909	-3.269127	-2.414144	6.981090	-1.324829	-0.197909	2.183599	20.892099	1.032633	0.014907	-10.802426	18.835339	-87.487239	132.681352	-13.837101	-16.731226	1.251995	-110.441834	66.780205	-45.453772
7.970000	37.749274	-5.763507	-3.564275	6.095927	2.876446	0.204680	4.378726	10.648267	-3.072137	-2.796059	7.424541	-0.728869	-0.240638	2.162118	21.162547	1.107025	-0.091754	-12.386966	20.945771	-88.189700	132.074994	-13.400594	-15.641407	3.264938	-109.568015	69.932874	-42.824000
